<svg height="104" width="104" xmlns="http://www.w3.org/2000/svg">
 <path d="m52 5c-26 0-47 21-47 47s21 47 47 47 47-21 47-47-21-47-47-47zm-0.07 4.2c1.7 0.044 3 1.4 3 3.1 0 4.1-6.2 4.1-6.2 0-7.3e-4 -1.8 1.4-3.2 3.2-3.1zm-7 5.1 4.8 5c1.1 1.1 2.9 1.2 4 0.09l5.4-5.1c11 2.1 21 8.9 26 19l-3.7 8.3c-0.63 1.4 0.019 3.1 1.4 3.8l7.1 3.1c0.22 2.2 0.25 4.4 0.08 6.6-0.22 7.7-1.6 12-7.3 20-1.1 1.4-2.3 2.8-3.5 4.1l-6.6-1.4c-1.5-0.33-3 0.65-3.4 2.2l-1.6 7.3c-10 4.6-22 4.5-32-0.15l-1.6-7.3c-0.33-1.5-1.8-2.5-3.4-2.2l-6.4 1.4c-1.2-1.2-2.3-2.5-3.3-3.9-2.3-3-4.6-8-6-12-1.4-4.7-1.8-9.7-1.2-15l6.7-3c1.4-0.64 2.1-2.3 1.4-3.7l-4.8-7c1-1.9 6.2-7.7 6.2-7.7 5.6-6.3 13-11 21-12zm-30 23c1.7 0.049 3 1.4 3 3.1 0 4.1-6.2 4.1-6.2 0-7.3e-4 -1.8 1.4-3.2 3.2-3.1zm74 0.14c1.7 0.049 3 1.4 3 3.1 0 4.1-6.2 4.1-6.2 0-7.3e-4 -1.8 1.4-3.2 3.2-3.1zm-60 44c1.7 0.049 3 1.4 3 3.1 0 4.1-6.2 4.1-6.2 0-7.3e-4 -1.8 1.4-3.2 3.2-3.1zm46 0.14c1.7 0.049 3 1.4 3 3.1 0 4.1-6.2 4.1-6.2 0-7.3e-4 -1.8 1.4-3.2 3.2-3.1z"/>
 <path d="m97 52a45 45 0 0 1-45 45 45 45 0 0 1-45-45 45 45 0 0 1 45-45 45 45 0 0 1 45 45zm-0.84-4.3 7 4.3-7 4.3 6 5.6-7.7 2.9 4.8 6.6-8.1 1.3 3.4 7.5-8.2-0.29 1.9 8-8-1.9 0.29 8.2-7.5-3.4-1.3 8.1-6.6-4.8-2.9 7.7-5.6-6-4.3 7-4.3-7-5.6 6-2.9-7.7-6.6 4.8-1.3-8.1-7.5 3.4 0.29-8.2-8 1.9 1.9-8-8.2 0.29 3.4-7.5-8.1-1.3 4.8-6.6-7.7-2.9 6-5.6-7-4.3 7-4.3-6-5.6 7.7-2.9-4.8-6.6 8.1-1.3-3.4-7.5 8.2 0.29-1.9-8 8 1.9-0.29-8.2 7.5 3.4 1.3-8.1 6.6 4.8 2.9-7.7 5.6 6 4.3-7 4.3 7 5.6-6 2.9 7.7 6.6-4.8 1.3 8.1 7.5-3.4-0.29 8.2 8-1.9-1.9 8 8.2-0.29-3.4 7.5 8.1 1.3-4.8 6.6 7.7 2.9z" fill-rule="evenodd" stroke="#000" stroke-linecap="round" stroke-linejoin="round" stroke-width="3"/>
 <rect x="36" y="62" width="10" height="10"/>
 <rect x="36" y="50" width="10" height="10"/>
 <rect x="48" y="62" width="10" height="10"/>
 <rect x="60" y="62" width="10" height="10"/>
 <rect x="48" y="50" width="10" height="10"/>
 <rect x="36" y="38" width="10" height="10"/>
 <rect transform="rotate(-45)" x="10" y="60" width="10" height="10"/>
 <rect transform="rotate(-25)" x="37" y="66" width="10" height="10"/>
</svg>
